<svg width="17" height="16" viewBox="0 0 17 16" fill="none" xmlns="http://www.w3.org/2000/svg">
<path d="M4.43708 7.33332H12.1351C12.7097 7.33332 13.0151 6.65332 12.6331 6.22332L8.78442 1.89331C8.72199 1.82285 8.64532 1.76644 8.55947 1.7278C8.47362 1.68917 8.38056 1.66919 8.28642 1.66919C8.19228 1.66919 8.09921 1.68917 8.01336 1.7278C7.92751 1.76644 7.85084 1.82285 7.78842 1.89331L3.93842 6.22332C3.55642 6.65332 3.86175 7.33332 4.43708 7.33332ZM7.78775 14.106C7.85018 14.1764 7.92685 14.2329 8.01269 14.2715C8.09854 14.3101 8.19161 14.3301 8.28575 14.3301C8.37989 14.3301 8.47296 14.3101 8.5588 14.2715C8.64465 14.2329 8.72132 14.1764 8.78375 14.106L12.6324 9.77598C13.0151 9.34665 12.7097 8.66665 12.1344 8.66665H4.43708C3.86242 8.66665 3.55708 9.34665 3.93908 9.77665L7.78775 14.106Z" fill="#9E9E9E"/>
</svg>
