<svg width="17" height="17" viewBox="0 0 17 17" fill="none" xmlns="http://www.w3.org/2000/svg">
<path d="M4.57992 7.83332H12.2779C12.8526 7.83332 13.1579 7.15332 12.7759 6.72332L8.92725 2.39331C8.86483 2.32285 8.78816 2.26644 8.70231 2.2278C8.61646 2.18917 8.52339 2.16919 8.42925 2.16919C8.33511 2.16919 8.24205 2.18917 8.1562 2.2278C8.07035 2.26644 7.99368 2.32285 7.93125 2.39331L4.08125 6.72332C3.69925 7.15332 4.00459 7.83332 4.57992 7.83332ZM7.93059 14.606C7.99302 14.6764 8.06969 14.7329 8.15553 14.7715C8.24138 14.8101 8.33445 14.8301 8.42859 14.8301C8.52273 14.8301 8.6158 14.8101 8.70164 14.7715C8.78749 14.7329 8.86416 14.6764 8.92659 14.606L12.7753 10.276C13.1579 9.84665 12.8526 9.16665 12.2773 9.16665H4.57992C4.00525 9.16665 3.69992 9.84665 4.08192 10.2766L7.93059 14.606Z" fill="#9E9E9E"/>
</svg>
