<svg width="17" height="16" viewBox="0 0 17 16" fill="none" xmlns="http://www.w3.org/2000/svg">
<path d="M5.0084 7.33332H12.7064C13.2811 7.33332 13.5864 6.65332 13.2044 6.22332L9.35574 1.89331C9.29331 1.82285 9.21664 1.76644 9.13079 1.7278C9.04494 1.68917 8.95188 1.66919 8.85774 1.66919C8.7636 1.66919 8.67053 1.68917 8.58468 1.7278C8.49883 1.76644 8.42216 1.82285 8.35974 1.89331L4.50974 6.22332C4.12774 6.65332 4.43307 7.33332 5.0084 7.33332ZM8.35907 14.106C8.4215 14.1764 8.49817 14.2329 8.58401 14.2715C8.66986 14.3101 8.76293 14.3301 8.85707 14.3301C8.95121 14.3301 9.04428 14.3101 9.13012 14.2715C9.21597 14.2329 9.29264 14.1764 9.35507 14.106L13.2037 9.77598C13.5864 9.34665 13.2811 8.66665 12.7057 8.66665H5.0084C4.43374 8.66665 4.1284 9.34665 4.5104 9.77665L8.35907 14.106Z" fill="#9E9E9E"/>
</svg>
