<svg width="25" height="25" viewBox="0 0 25 25" fill="none" xmlns="http://www.w3.org/2000/svg">
<g clip-path="url(#clip0_557_185)">
<path d="M11.9286 4.5H4.92859C4.39816 4.5 3.88945 4.71071 3.51438 5.08579C3.1393 5.46086 2.92859 5.96957 2.92859 6.5V20.5C2.92859 21.0304 3.1393 21.5391 3.51438 21.9142C3.88945 22.2893 4.39816 22.5 4.92859 22.5H18.9286C19.459 22.5 19.9677 22.2893 20.3428 21.9142C20.7179 21.5391 20.9286 21.0304 20.9286 20.5V13.5" stroke="#F46C04" stroke-width="2" stroke-linecap="round" stroke-linejoin="round"/>
<path d="M19.4286 2.99998C19.8264 2.60216 20.366 2.37866 20.9286 2.37866C21.4912 2.37866 22.0308 2.60216 22.4286 2.99998C22.8264 3.39781 23.0499 3.93737 23.0499 4.49998C23.0499 5.06259 22.8264 5.60216 22.4286 5.99998L12.9286 15.5L8.92859 16.5L9.92859 12.5L19.4286 2.99998Z" stroke="#F46C04" stroke-width="2" stroke-linecap="round" stroke-linejoin="round"/>
</g>
<defs>
<clipPath id="clip0_557_185">
<rect width="24" height="24" fill="white" transform="translate(0.928589 0.5)"/>
</clipPath>
</defs>
</svg>
