<svg width="25" height="25" viewBox="0 0 25 25" fill="none" xmlns="http://www.w3.org/2000/svg">
<g clip-path="url(#clip0_557_206)">
<path d="M11.9285 4.5H4.92847C4.39803 4.5 3.88933 4.71071 3.51425 5.08579C3.13918 5.46086 2.92847 5.96957 2.92847 6.5V20.5C2.92847 21.0304 3.13918 21.5391 3.51425 21.9142C3.88933 22.2893 4.39803 22.5 4.92847 22.5H18.9285C19.4589 22.5 19.9676 22.2893 20.3427 21.9142C20.7178 21.5391 20.9285 21.0304 20.9285 20.5V13.5" stroke="#F46C04" stroke-width="2" stroke-linecap="round" stroke-linejoin="round"/>
<path d="M19.4285 2.99998C19.8263 2.60216 20.3659 2.37866 20.9285 2.37866C21.4911 2.37866 22.0306 2.60216 22.4285 2.99998C22.8263 3.39781 23.0498 3.93737 23.0498 4.49998C23.0498 5.06259 22.8263 5.60216 22.4285 5.99998L12.9285 15.5L8.92847 16.5L9.92847 12.5L19.4285 2.99998Z" stroke="#F46C04" stroke-width="2" stroke-linecap="round" stroke-linejoin="round"/>
</g>
<defs>
<clipPath id="clip0_557_206">
<rect width="24" height="24" fill="white" transform="translate(0.928467 0.5)"/>
</clipPath>
</defs>
</svg>
