<svg width="16" height="15" viewBox="0 0 16 15" fill="none" xmlns="http://www.w3.org/2000/svg">
<path d="M4 15C4 15 3 15 3 14C3 13 4 9.99999 8 9.99999C12 9.99999 13 13 13 14C13 15 12 15 12 15H4ZM8 9.04999C8.66304 9.04999 9.29893 8.7866 9.76777 8.31775C10.2366 7.84891 10.5 7.21303 10.5 6.54999C10.5 5.88695 10.2366 5.25106 9.76777 4.78222C9.29893 4.31338 8.66304 4.04999 8 4.04999C7.33696 4.04999 6.70107 4.31338 6.23223 4.78222C5.76339 5.25106 5.5 5.88695 5.5 6.54999C5.5 7.21303 5.76339 7.84891 6.23223 8.31775C6.70107 8.7866 7.33696 9.04999 8 9.04999Z" fill="white"/>
<path d="M2 0C1.46957 0 0.960859 0.210714 0.585786 0.585786C0.210714 0.960859 0 1.46957 0 2L0 11.5C0 11.8978 0.158035 12.2794 0.43934 12.5607C0.720644 12.842 1.10218 13 1.5 13H2.153C2.36209 12.2651 2.72551 11.5833 3.219 11H1V2C1 1.73478 1.10536 1.48043 1.29289 1.29289C1.48043 1.10536 1.73478 1 2 1H14C14.2652 1 14.5196 1.10536 14.7071 1.29289C14.8946 1.48043 15 1.73478 15 2V11H12.781C13.335 11.654 13.671 12.373 13.847 13H14.5C14.8978 13 15.2794 12.842 15.5607 12.5607C15.842 12.2794 16 11.8978 16 11.5V2C16 1.46957 15.7893 0.960859 15.4142 0.585786C15.0391 0.210714 14.5304 0 14 0H2Z" fill="white"/>
</svg>
