<svg width="269" height="39" viewBox="0 0 269 39" fill="none" xmlns="http://www.w3.org/2000/svg">
<path d="M0 5C0 2.23858 2.23858 0 5 0H209V38H5C2.23858 38 0 35.7614 0 33V5Z" fill="#EDEDED"/>
<path d="M209 0H264C266.761 0 269 2.23858 269 5V33.1284C269 35.8899 266.761 38.1284 264 38.1284H209V0Z" fill="#1FA6E1"/>
<path d="M244.153 21.7456H243.069L242.684 21.4246C244.076 20.0262 244.84 18.241 244.839 16.3947C244.839 14.866 244.316 13.3716 243.336 12.1006C242.356 10.8295 240.962 9.83888 239.333 9.25388C237.703 8.66888 235.909 8.51581 234.179 8.81404C232.449 9.11227 230.86 9.8484 229.612 10.9293C228.365 12.0103 227.516 13.3875 227.171 14.8868C226.827 16.3861 227.004 17.9402 227.679 19.3525C228.354 20.7648 229.497 21.9719 230.964 22.8212C232.431 23.6705 234.155 24.1238 235.919 24.1238C238.129 24.1238 240.16 23.4222 241.724 22.2569L242.094 22.5899V23.5293L248.955 29.4629L251 27.6911L244.153 21.7456ZM235.919 21.7456C232.503 21.7456 229.744 19.3555 229.744 16.3947C229.744 13.4338 232.503 11.0437 235.919 11.0437C239.336 11.0437 242.094 13.4338 242.094 16.3947C242.094 19.3555 239.336 21.7456 235.919 21.7456Z" fill="#FFFFF4"/>
</svg>
