<svg width="25" height="25" viewBox="0 0 25 25" fill="none" xmlns="http://www.w3.org/2000/svg">
<path d="M3.92859 6.5H5.92859H21.9286" stroke="#A30D11" stroke-width="2" stroke-linecap="round" stroke-linejoin="round"/>
<path d="M8.92859 6.5V4.5C8.92859 3.96957 9.1393 3.46086 9.51438 3.08579C9.88945 2.71071 10.3982 2.5 10.9286 2.5H14.9286C15.459 2.5 15.9677 2.71071 16.3428 3.08579C16.7179 3.46086 16.9286 3.96957 16.9286 4.5V6.5M19.9286 6.5V20.5C19.9286 21.0304 19.7179 21.5391 19.3428 21.9142C18.9677 22.2893 18.459 22.5 17.9286 22.5H7.92859C7.39816 22.5 6.88945 22.2893 6.51438 21.9142C6.1393 21.5391 5.92859 21.0304 5.92859 20.5V6.5H19.9286Z" stroke="#A30D11" stroke-width="2" stroke-linecap="round" stroke-linejoin="round"/>
<path d="M10.9286 11.5V17.5" stroke="#A30D11" stroke-width="2" stroke-linecap="round" stroke-linejoin="round"/>
<path d="M14.9286 11.5V17.5" stroke="#A30D11" stroke-width="2" stroke-linecap="round" stroke-linejoin="round"/>
</svg>
