<svg width="25" height="25" viewBox="0 0 25 25" fill="none" xmlns="http://www.w3.org/2000/svg">
<path d="M3.92847 6.5H5.92847H21.9285" stroke="#A30D11" stroke-width="2" stroke-linecap="round" stroke-linejoin="round"/>
<path d="M8.92847 6.5V4.5C8.92847 3.96957 9.13918 3.46086 9.51425 3.08579C9.88933 2.71071 10.398 2.5 10.9285 2.5H14.9285C15.4589 2.5 15.9676 2.71071 16.3427 3.08579C16.7178 3.46086 16.9285 3.96957 16.9285 4.5V6.5M19.9285 6.5V20.5C19.9285 21.0304 19.7178 21.5391 19.3427 21.9142C18.9676 22.2893 18.4589 22.5 17.9285 22.5H7.92847C7.39803 22.5 6.88933 22.2893 6.51425 21.9142C6.13918 21.5391 5.92847 21.0304 5.92847 20.5V6.5H19.9285Z" stroke="#A30D11" stroke-width="2" stroke-linecap="round" stroke-linejoin="round"/>
<path d="M10.9285 11.5V17.5" stroke="#A30D11" stroke-width="2" stroke-linecap="round" stroke-linejoin="round"/>
<path d="M14.9285 11.5V17.5" stroke="#A30D11" stroke-width="2" stroke-linecap="round" stroke-linejoin="round"/>
</svg>
