<svg width="22" height="22" viewBox="0 0 22 22" fill="none" xmlns="http://www.w3.org/2000/svg">
<path d="M9.75 0C9.94891 0 10.1397 0.0790177 10.2803 0.21967C10.421 0.360322 10.5 0.551088 10.5 0.75V3H17.032C17.452 3 17.858 3.15 18.175 3.425L21.362 6.175C21.5524 6.33928 21.7052 6.54268 21.8099 6.77133C21.9146 6.99998 21.9688 7.24851 21.9688 7.5C21.9688 7.75149 21.9146 8.00002 21.8099 8.22867C21.7052 8.45732 21.5524 8.66072 21.362 8.825L18.175 11.575C17.8573 11.8491 17.4516 12 17.032 12H10.5V21.25C10.5 21.4489 10.421 21.6397 10.2803 21.7803C10.1397 21.921 9.94891 22 9.75 22C9.55109 22 9.36032 21.921 9.21967 21.7803C9.07902 21.6397 9 21.4489 9 21.25V12H1.75C1.28587 12 0.840752 11.8156 0.512563 11.4874C0.184375 11.1592 0 10.7141 0 10.25V4.75C0 3.783 0.784 3 1.75 3H9V0.75C9 0.551088 9.07902 0.360322 9.21967 0.21967C9.36032 0.0790177 9.55109 0 9.75 0ZM17.032 4.5H1.75C1.6837 4.5 1.62011 4.52634 1.57322 4.57322C1.52634 4.62011 1.5 4.6837 1.5 4.75V10.25C1.5 10.388 1.612 10.5 1.75 10.5H17.032C17.092 10.5 17.15 10.479 17.195 10.44L20.383 7.69C20.4107 7.66672 20.4331 7.63765 20.4484 7.60482C20.4637 7.572 20.4716 7.53622 20.4716 7.5C20.4716 7.46378 20.4637 7.428 20.4484 7.39518C20.4331 7.36235 20.4107 7.33328 20.383 7.31L17.195 4.56C17.1496 4.52108 17.0918 4.49979 17.032 4.5Z" fill="white"/>
</svg>
